<mxfile host="app.diagrams.net" modified="2023-07-19T15:56:19.646Z" agent="Mozilla/5.0 (Macintosh; Intel Mac OS X 10_15_7) AppleWebKit/605.1.15 (KHTML, like Gecko) Version/16.5.2 Safari/605.1.15" etag="gYBNPjZDiAHJ5i0AkDmZ" version="21.6.3" type="github">
  <diagram name="Page-1" id="dXMN3EbLFsjps9fhWBHW">
    <mxGraphModel dx="1183" dy="676" grid="1" gridSize="10" guides="1" tooltips="1" connect="1" arrows="1" fold="1" page="1" pageScale="1" pageWidth="827" pageHeight="1169" math="0" shadow="0">
      <root>
        <mxCell id="0" />
        <mxCell id="1" parent="0" />
      </root>
    </mxGraphModel>
  </diagram>
</mxfile>
